{"title":"Faith Fraud And Minimum Wage 2010 DVDRip XviD-MADiSON","uid":6871064,"size":1133406282,"categoryP":"video","categoryS":"movies","magnet":"?xt=urn:btih:5dbfa2438e7d6c77793217f9d498a028e3546ba1&amp;dn=Faith+Fraud+And+Minimum+Wage+2010+DVDRip+XviD-MADiSON&amp;tr=udp%3A%2F%2Ftracker.openbittorrent.com%3A80&amp;tr=udp%3A%2F%2Fopen.demonii.com%3A1337&amp;tr=udp%3A%2F%2Ftracker.coppersurfer.tk%3A6969&amp;tr=udp%3A%2F%2Fexodus.desync.com%3A6969","seeders":0,"leechers":2,"uploader":"HeroMaster","files":-1,"time":1323276692,"description":"Faith Fraud And Minimum Wage 2010 DVDRip XviD-MADiSON\n\n\nGenre : Comedy / Drama\n\n\nPlot : \n\nTeenaged Casey never knew what a miracle could do... until she created \none. Frustrated with her life, Casey throws a coffee at the wall of the Krowne Donuts where she works ... and the splash (with a little help from Casey) seems \nto resemble an image of Jesus Christ. \n\n\nIMDB:\n\n &lt;a href=&quot;\nhttp://www.imdb.com/title/tt1540404/&quot; rel=&quot;nofollow&quot; target=&quot;_NEW&quot;&gt;\nhttp://www.imdb.com/title/tt1540404/&lt;/a&gt;\n\n\nInfomation:\n\nFormat : AVI\nFormat/Info : Audio Video Interleave\nFormat profile : OpenDML\nFile size : 1.06 GiB\nDuration : 1h 34mn\nOverall bit rate : 1 602 Kbps\nWriting application : MEncoder SVN-r33823-4.1.2\nWriting library : MPlayer\n\nVideo\nID : 0\nFormat : xvid\nCodec ID : xvid\nDuration : 1h 34mn\nBit rate : 1 475 Kbps\nWidth : 640 pixels\nHeight : 352 pixels\nDisplay aspect ratio : 16:9\nFrame rate : 23.976 fps\nBits/(Pixel*Frame) : 0.273\nStream size : 995 MiB (92%)\n\nAudio\nID : 1\nFormat : MPEG Audio\nCodec ID : 55\nCodec ID/Hint : MP3\nDuration : 1h 34mn\nBit rate : 112 Kbps\nChannel(s) : 2 channels\nSampling rate : 48.0 KHz\nCompression mode : Lossy\nStream size : 1.09 MiB (0%)\nAlignment : Aligned on interleaves\nInterleave, duration : 1605 ms (38.47 video frames)\nInterleave, preload duration : 145 ms\n\n\nPoster:\n\n &lt;a href=&quot;\nhttp://i.imgur.com/AMwlw.jpg&quot; rel=&quot;nofollow&quot; target=&quot;_NEW&quot;&gt;\nhttp://i.imgur.com/AMwlw.jpg&lt;/a&gt;\n\n\nScreenshots:\n\n &lt;a href=&quot;\nhttp://i.imgur.com/E3K8L.jpg&quot; rel=&quot;nofollow&quot; target=&quot;_NEW&quot;&gt;\nhttp://i.imgur.com/E3K8L.jpg&lt;/a&gt;\n\n\nENJOY!","torrent":{"xt":"urn:btih:5dbfa2438e7d6c77793217f9d498a028e3546ba1","amp;dn":"Faith+Fraud+And+Minimum+Wage+2010+DVDRip+XviD-MADiSON","amp;tr":["udp%3A%2F%2Ftracker.openbittorrent.com%3A80","udp%3A%2F%2Fopen.demonii.com%3A1337","udp%3A%2F%2Ftracker.coppersurfer.tk%3A6969","udp%3A%2F%2Fexodus.desync.com%3A6969"],"infoHash":"5dbfa2438e7d6c77793217f9d498a028e3546ba1","infoHashBuffer":{"type":"Buffer","data":[93,191,162,67,142,125,108,119,121,50,23,249,212,152,160,40,227,84,107,161]},"announce":[],"urlList":[]}}